HIERARCHY
ROOT Hips
{
	OFFSET 0.000000 0.000000 0.000000
	CHANNELS 6 Xposition Yposition Zposition Zrotation Yrotation Xrotation 
	JOINT LHipJoint
	{
		OFFSET 0.000000 0.000000 0.000000
		CHANNELS 3 Zrotation Yrotation Xrotation
		JOINT LeftUpLeg
		{
			OFFSET 1.363060 -1.794630 0.839290
			CHANNELS 3 Zrotation Yrotation Xrotation
			JOINT LeftLeg
			{
				OFFSET 2.448110 -6.726130 0.000000
				CHANNELS 3 Zrotation Yrotation Xrotation
				JOINT LeftFoot
				{
					OFFSET 2.562200 -7.039590 0.000000
					CHANNELS 3 Zrotation Yrotation Xrotation
					JOINT LeftToeBase
					{
						OFFSET 0.157640 -0.433110 2.322550
						CHANNELS 3 Zrotation Yrotation Xrotation
						End Site
						{
							OFFSET 0.000000 0.000000 0.000000
						}
					}
				}
			}
		}
	}
	JOINT RHipJoint
	{
		OFFSET 0.000000 0.000000 0.000000
		CHANNELS 3 Zrotation Yrotation Xrotation
		JOINT RightUpLeg
		{
			OFFSET -1.305520 -1.794630 0.839290
			CHANNELS 3 Zrotation Yrotation Xrotation
			JOINT RightLeg
			{
				OFFSET -2.542530 -6.985550 0.000000
				CHANNELS 3 Zrotation Yrotation Xrotation
				JOINT RightFoot
				{
					OFFSET -2.568260 -7.056230 0.000000
					CHANNELS 3 Zrotation Yrotation Xrotation
					JOINT RightToeBase
					{
						OFFSET -0.164730 -0.452590 2.363150
						CHANNELS 3 Zrotation Yrotation Xrotation
						End Site
						{
							OFFSET 0.000000 0.000000 0.000000
						}
					}
				}
			}
		}
	}
}
MOTION
Frames: 30
Frame Time: 0.008333
-2.077858 16.744739 -0.338802 9.200647 58.645042 30.498289 -7.603841 -0.524093 0.565267 -5.746220 -4.418209 -39.604099 -2.516648 0.337937 20.460260 0.201820 0.434440 -0.436002 0.284000 0.000000 -46.038300 12.537875 -0.608245 -2.007280 7.102218 0.984074 -25.778765 0.211995 -3.913774 54.421005 0.911981 11.172943 -2.992387 0.700800 -0.000000 -43.417300
-1.965832 16.656642 -0.295593 9.969808 57.878217 30.720907 -7.539821 -0.432474 0.236622 -6.966602 -3.600564 -40.281535 -2.525681 0.615320 23.803393 0.244373 0.507037 -1.468024 0.251400 -0.000000 -46.398900 12.839936 -0.554391 -2.255801 6.603039 -0.385528 -26.712772 -0.116711 -4.159484 57.395883 0.668482 9.119136 -2.434199 0.692300 0.000000 -46.859200
-1.858027 16.576082 -0.253185 10.664784 57.106161 30.831169 -7.474218 -0.349484 -0.116967 -8.142139 -2.763556 -40.737102 -2.523148 0.867488 26.919946 0.306733 0.696369 -2.684758 0.219300 -0.000000 -46.562000 13.116785 -0.483721 -2.516231 6.147212 -1.666411 -27.542767 -0.431136 -4.397376 60.226529 0.381531 6.757708 -2.052036 0.592400 0.000000 -47.872300
-1.753719 16.505449 -0.211660 11.278891 56.333916 30.828034 -7.407997 -0.273849 -0.481737 -9.235970 -1.946505 -40.924653 -2.515414 1.083619 29.695705 0.386456 0.986996 -4.038609 0.179000 0.000000 -46.583900 13.366640 -0.399131 -2.790492 5.738396 -2.861452 -28.256266 -0.724133 -4.627109 62.876190 0.053866 4.152073 -1.884592 0.410100 0.000000 -46.562400
-1.652021 16.446588 -0.171007 11.806274 55.568169 30.712512 -7.344037 -0.203938 -0.845002 -10.221576 -1.174453 -40.821813 -2.508734 1.257610 32.053009 0.479431 1.352256 -5.472279 0.122100 0.000000 -46.517900 13.587423 -0.305554 -3.078830 5.382320 -3.979101 -28.849033 -0.988109 -4.848374 65.313442 -0.306399 1.393010 -1.983008 0.171000 -0.000000 -43.016300
-1.551797 16.400737 -0.131152 12.238260 54.815922 30.487092 -7.286479 -0.138772 -1.195391 -11.078591 -0.463572 -40.428466 -2.507089 1.387455 33.948401 0.581154 1.766044 -6.920332 0.044700 0.000000 -46.406399 13.776230 -0.208446 -3.377037 5.086600 -5.021306 -29.321696 -1.219913 -5.057910 67.492057 -0.689926 -1.425662 -2.301455 -0.084000 -0.000000 -38.301600
-1.451919 16.368416 -0.091941 12.565488 54.083464 30.155105 -7.240483 -0.077793 -1.522595 -11.791676 0.178153 -39.763773 -2.511575 1.474664 35.370794 0.687237 2.208132 -8.313951 -0.052700 0.000000 -46.280500 13.930019 -0.114880 -3.679452 4.860880 -5.988664 -29.683121 -1.415394 -5.253359 69.391327 -1.080112 -4.184162 -2.840311 -0.314100 -0.000000 -32.864500
-1.351320 16.349492 -0.053038 12.778356 53.375354 29.722754 -7.211113 -0.021195 -1.817992 -12.351309 0.747942 -38.864117 -2.520530 1.523224 36.336032 0.793858 2.667576 -9.585775 -0.164800 -0.000000 -46.164300 14.045774 -0.031199 -3.975898 4.715583 -6.870769 -29.946669 -1.575287 -5.429545 70.987743 -1.460621 -6.775701 -3.496112 -0.489700 0.000000 -27.772700
-1.249174 16.343186 -0.013969 12.872537 52.694033 29.201701 -7.202104 0.031189 -2.075547 -12.756277 1.248216 -37.777207 -2.530519 1.539112 36.884116 0.897733 3.140601 -10.677014 -0.283400 0.000000 -46.079400 14.122470 0.036630 -4.258031 4.659002 -7.662877 -30.133936 -1.699151 -5.583878 72.288027 -1.810449 -9.084887 -4.231986 -0.592800 0.000000 -23.397000
-1.144869 16.348318 0.026021 12.850619 52.040781 28.608362 -7.216499 0.080019 -2.290708 -13.013310 1.686585 -36.557352 -2.537243 1.529131 37.070924 0.996065 3.627485 -11.540877 -0.399000 -0.000001 -46.048900 14.159980 0.083604 -4.515627 4.697428 -8.359062 -30.270080 -1.788469 -5.713415 73.302800 -2.110957 -11.018364 -4.980974 -0.622900 0.000000 -20.106500
-1.038282 16.363382 0.067780 12.724425 51.414959 27.964947 -7.254868 0.126934 -2.462391 -13.138690 2.074833 -35.260152 -2.536886 1.500637 36.964476 1.086601 4.128607 -12.148758 -0.502300 0.000000 -46.096000 14.160797 0.106910 -4.741952 4.830039 -8.962699 -30.383425 -1.843331 -5.818073 74.056740 -2.344599 -12.492276 -5.740877 -0.581800 0.000000 -17.687900
-0.929614 16.386727 0.112221 12.512601 50.815396 27.297424 -7.315847 0.174133 -2.592829 -13.155250 2.429170 -33.938926 -2.526957 1.460875 36.637695 1.167446 4.640225 -12.491004 -0.584600 -0.000000 -46.241401 14.129092 0.106634 -4.931354 5.049673 -9.477801 -30.500424 -1.864775 -5.898196 74.572123 -2.499375 -13.452046 -6.493311 -0.482000 0.000001 -16.002500
-0.819139 16.416215 0.160940 12.280857 50.245316 26.685039 -7.388997 0.228473 -2.674933 -13.123068 2.730024 -32.662953 -2.506971 1.414287 36.161999 1.240354 5.170653 -12.576334 -0.640601 -0.000000 -46.484700 14.076557 0.089221 -5.073472 5.312996 -9.924331 -30.681025 -1.855223 -5.957072 74.882166 -2.567163 -13.860710 -7.215904 -0.343200 0.000000 -14.970300
-0.708368 16.451899 0.212731 11.958356 49.692909 26.031130 -7.488375 0.282225 -2.742101 -12.989807 3.081322 -31.416567 -2.477575 1.371139 35.600356 1.296280 5.663132 -12.429249 -0.662800 0.000000 -46.861500 13.994024 0.050688 -5.180989 5.670481 -10.273968 -30.851159 -1.814761 -5.989780 74.967179 -2.551588 -13.754617 -7.852453 -0.198000 0.000000 -14.591300
-0.597893 16.491644 0.269465 11.631641 49.162006 25.433837 -7.597771 0.343658 -2.785416 -12.828550 3.449510 -30.259244 -2.442171 1.332221 35.005104 1.338147 6.118995 -12.084708 -0.651300 -0.000000 -47.349299 13.897800 0.002314 -5.242845 6.058335 -10.549027 -31.076974 -1.747650 -6.001389 74.860147 -2.455794 -13.156751 -8.372006 -0.070200 -0.000001 -14.902400
-0.488494 16.534510 0.331628 11.327443 48.657585 24.915047 -7.711366 0.414316 -2.810283 -12.661314 3.836701 -29.205347 -2.404316 1.299594 34.413562 1.365019 6.516282 -11.584179 -0.607900 0.000000 -47.935600 13.794306 -0.048413 -5.262187 6.453343 -10.762984 -31.364427 -1.657107 -5.993761 74.570333 -2.290817 -12.135586 -8.739735 0.021201 -0.000000 -15.951200
-0.381182 16.579844 0.398963 11.058083 48.174077 24.480766 -7.824879 0.493809 -2.823751 -12.500222 4.252323 -28.258392 -2.367751 1.273817 33.846073 1.375895 6.833718 -10.966873 -0.536800 -0.000000 -48.608400 13.688167 -0.095068 -5.240724 6.840038 -10.912615 -31.715971 -1.547775 -5.968424 74.108985 -2.074133 -10.792788 -8.934690 0.068900 0.000000 -17.732600
-0.276610 16.627379 0.470832 10.824487 47.712321 24.123568 -7.936211 0.580165 -2.831683 -12.344367 4.694603 -27.405849 -2.335064 1.254586 33.308101 1.370153 7.054679 -10.266905 -0.444100 -0.000000 -49.358700 13.581073 -0.132257 -5.186556 7.211677 -11.005471 -32.121869 -1.423455 -5.927009 73.485041 -1.826998 -9.249167 -8.965401 0.079300 -0.000001 -20.102100
-0.175131 16.676912 0.546457 10.623839 47.271983 23.833400 -8.043975 0.671246 -2.836889 -12.188984 5.153548 -26.629243 -2.307816 1.240481 32.791465 1.348155 7.171604 -9.508956 -0.336300 -0.000000 -50.181900 13.473415 -0.155944 -5.108501 7.566450 -11.051367 -32.573213 -1.287552 -5.871534 72.712886 -1.571990 -7.633838 -8.873021 0.067500 0.000001 -22.761200
-0.076732 16.728316 0.625070 10.448562 46.851845 23.598827 -8.147896 0.764744 -2.839825 -12.026263 5.613149 -25.907783 -2.286340 1.229557 32.278574 1.311221 7.186157 -8.706197 -0.219500 -0.000000 -51.078100 13.363965 -0.163389 -5.015430 7.907251 -11.059435 -33.063238 -1.142962 -5.804148 71.812011 -1.330069 -6.072154 -8.720834 0.048900 0.000000 -25.326701
0.018812 16.781458 0.705834 10.288173 46.450315 23.406902 -8.248688 0.858391 -2.838885 -11.847212 6.055412 -25.221472 -2.269707 1.219633 31.748568 1.261677 7.108980 -7.862535 -0.098301 0.000000 -52.047500 13.250459 -0.154171 -4.914887 8.241196 -11.038078 -33.585436 -0.992064 -5.727011 70.804487 -1.118131 -4.674052 -8.576990 0.033300 -0.000000 -27.449800
0.112025 16.836231 0.788099 10.130027 46.063302 23.246797 -8.348890 0.950220 -2.831187 -11.642034 6.462549 -24.554529 -2.256200 1.208943 31.179335 1.202718 6.958491 -6.973008 0.024400 -0.000001 -53.089000 13.128718 -0.128798 -4.812304 8.578529 -10.990488 -34.134443 -0.837316 -5.640948 69.708277 -0.948212 -3.527229 -8.490197 0.023800 0.000000 -28.980100
0.203579 16.892395 0.871255 9.961509 45.688086 23.107328 -8.451489 1.038463 -2.813383 -11.402825 6.820656 -23.895148 -2.243295 1.195968 30.554199 1.138038 6.757456 -6.029264 0.146700 -0.000000 -54.196000 12.994588 -0.090004 -4.710534 8.929629 -10.918545 -34.704765 -0.680478 -5.546706 68.537133 -0.827305 -2.689528 -8.495049 0.019900 -0.000000 -29.882100
0.294150 16.949649 0.954899 9.771106 45.322653 22.978692 -8.559543 1.121617 -2.782936 -11.123480 7.121926 -23.236842 -2.228216 1.179805 29.863670 1.071544 6.530524 -5.022512 0.267900 0.000000 -55.356400 12.844321 -0.041647 -4.610543 9.304288 -10.822479 -35.289948 -0.522597 -5.444590 67.297705 -0.758303 -2.187751 -8.608513 0.020700 0.000001 -30.217099
0.384270 17.007483 1.038989 9.550790 44.964761 22.854189 -8.674998 1.198909 -2.738747 -10.802398 7.367161 -22.578475 -2.208543 1.160119 29.107197 1.006730 6.299534 -3.946839 0.387600 -0.000001 -56.554200 12.675885 0.011662 -4.511030 9.709106 -10.701144 -35.883280 -0.363936 -5.334788 65.990360 -0.741088 -2.019507 -8.834649 0.026500 0.000001 -30.077300
0.474290 17.065282 1.123444 9.294681 44.609941 22.728570 -8.798887 1.269834 -2.682296 -10.441792 7.566649 -21.923784 -2.182459 1.137255 28.292848 0.946781 6.083867 -2.801701 0.505900 0.000000 -57.770500 12.488591 0.065545 -4.409030 10.147197 -10.549292 -36.478459 -0.204493 -5.217201 64.609960 -0.773393 -2.158310 -9.162774 0.039000 0.000000 -29.558300
0.564204 17.122271 1.208739 9.003229 44.247153 22.605778 -8.929644 1.334790 -2.617769 -10.052090 7.743565 -21.284902 -2.149886 1.111796 27.435806 0.893782 5.895285 -1.593178 0.622799 0.000000 -58.988800 12.284757 0.116540 -4.297664 10.615144 -10.352292 -37.075320 -0.044631 -5.091644 63.149525 -0.851419 -2.560455 -9.571879 0.060801 0.000000 -28.743300
0.654486 17.177724 1.295319 8.687840 43.889179 22.489479 -9.066958 1.395559 -2.543561 -9.642059 7.894169 -20.664369 -2.110305 1.084874 26.555453 0.849863 5.745203 -0.336933 0.738300 -0.000000 -60.190099 12.065579 0.161945 -4.179123 11.105731 -10.137321 -37.661687 0.117750 -4.957702 61.591858 -0.967607 -3.157877 -10.032653 0.093500 -0.000001 -27.707900
0.744792 17.230950 1.383610 8.351642 43.525047 22.379651 -9.209074 1.452842 -2.467331 -9.220900 8.050161 -20.069619 -2.065618 1.057908 25.672965 0.814912 5.630139 0.947803 0.851400 0.000000 -61.366200 11.834524 0.199488 -4.048905 11.612406 -9.894219 -38.228356 0.282547 -4.814355 59.921983 -1.114173 -3.886659 -10.505693 0.135901 0.000000 -26.531300
0.834970 17.281316 1.474215 8.002220 43.150582 22.280712 -9.354202 1.507711 -2.394074 -8.797059 8.231695 -19.507959 -2.018276 1.032226 24.809376 0.788198 5.542147 2.236398 0.960100 0.000001 -62.512900 11.594965 0.227940 -3.905272 12.128377 -9.624829 -38.767319 0.450319 -4.660454 58.124710 -1.281084 -4.678255 -10.952510 0.184000 0.000000 -25.269200
